# Blender 4.0.2
# www.blender.org
mtllib Sketchfab_2023_03_21_11_58_42.mtl
o SM_post_it_notes.001
v -0.141468 0.000000 0.038000
v -0.065468 0.000000 0.038000
v -0.141468 0.000000 -0.038000
v -0.065468 0.000000 -0.038000
v -0.141468 -0.014059 0.038000
v -0.065468 -0.014059 0.038000
v -0.141468 -0.014059 -0.038000
v -0.065468 -0.014059 -0.038000
vn -0.0000 1.0000 -0.0000
vn -0.0000 -1.0000 -0.0000
vn 1.0000 -0.0000 -0.0000
vn -1.0000 -0.0000 -0.0000
vn -0.0000 -0.0000 -1.0000
vn -0.0000 -0.0000 1.0000
vt 0.998047 0.333283
vt 0.672822 0.333283
vt 0.672822 0.658507
vt 0.998047 0.658507
vt 0.670362 0.001953
vt 0.670362 0.327178
vt 0.995586 0.327178
vt 0.995586 0.001953
vt 0.238018 0.358561
vt 0.177855 0.358561
vt 0.177855 0.683786
vt 0.238018 0.683786
vt 0.171750 0.355982
vt 0.111587 0.355982
vt 0.111587 0.681207
vt 0.171750 0.681207
vt 0.105482 0.353009
vt 0.045320 0.353009
vt 0.045320 0.678234
vt 0.105482 0.678234
vt 0.244123 0.689925
vt 0.304286 0.689925
vt 0.304286 0.364700
vt 0.244123 0.364700
s 0
usemtl Post_it_note
f 1/1/1 2/2/1 4/3/1 3/4/1
f 5/5/2 7/6/2 8/7/2 6/8/2
f 2/9/3 6/10/3 8/11/3 4/12/3
f 3/13/4 7/14/4 5/15/4 1/16/4
f 4/17/5 8/18/5 7/19/5 3/20/5
f 1/21/6 5/22/6 6/23/6 2/24/6
o SM_post_it_notes.004
v -0.141468 0.000000 0.038000
v -0.069271 0.014858 0.038000
v -0.141468 0.000000 -0.038000
v -0.065468 0.004584 -0.038000
v -0.128801 0.000000 0.038000
v -0.116135 0.000000 0.038000
v -0.103468 0.000000 0.038000
v -0.090801 0.000000 0.038000
v -0.079265 0.006085 0.038000
v -0.078135 0.001792 -0.038000
v -0.090801 0.002203 -0.038000
v -0.103468 0.005636 -0.038000
v -0.116135 0.002203 -0.038000
v -0.128801 0.000000 -0.038000
v -0.141468 0.000000 -0.022800
v -0.141468 0.000000 -0.007600
v -0.141468 0.000000 0.007600
v -0.141468 0.000000 0.022800
v -0.065961 0.002898 0.022800
v -0.065468 0.000000 0.007600
v -0.065468 0.000000 -0.007600
v -0.065468 0.001061 -0.022800
v -0.128801 0.000000 0.022800
v -0.128801 0.000000 0.007600
v -0.128801 0.000000 -0.007600
v -0.128801 0.000000 -0.022800
v -0.116135 0.000000 0.022800
v -0.116135 0.000000 0.007600
v -0.116135 0.000000 -0.007600
v -0.116135 0.000172 -0.022800
v -0.103468 0.000000 0.022800
v -0.103468 0.000000 0.007600
v -0.103468 0.000000 -0.007600
v -0.103468 0.001304 -0.022800
v -0.090801 0.000000 0.022800
v -0.090801 0.000000 0.007600
v -0.090801 0.000000 -0.007600
v -0.090801 0.000172 -0.022800
v -0.078135 0.000408 0.022800
v -0.078135 0.000000 0.007600
v -0.078135 0.000000 -0.007600
v -0.078135 0.000140 -0.022800
vn -0.0402 0.9956 0.0842
vn -0.0903 0.9905 0.1036
vn -0.1430 0.9757 0.1661
vn -0.0635 0.9876 0.1438
vn -0.0000 1.0000 -0.0000
vn -0.0250 0.9995 0.0180
vn -0.0466 0.9984 0.0332
vn -0.0798 0.9935 0.0807
vn -0.1346 0.9816 0.1357
vn -0.0000 0.9919 0.1273
vn -0.0000 0.9788 0.2049
vn 0.0593 0.9937 0.0955
vn 0.0969 0.9820 0.1622
vn -0.1289 0.9871 -0.0945
vn -0.3352 0.8681 -0.3660
vn -0.1959 0.9579 -0.2101
vn -0.0683 0.9964 -0.0505
vn -0.0289 0.9991 -0.0307
vn -0.0040 1.0000 -0.0034
vn -0.0088 0.9999 0.0124
vn 0.0115 0.9998 0.0147
vn -0.0000 0.9997 0.0242
vn -0.0128 0.9998 0.0135
vn -0.0017 1.0000 0.0014
vn -0.3913 0.7701 -0.5039
vn -0.2528 0.9145 -0.3158
vn -0.0492 0.9973 -0.0542
vn -0.0182 0.9996 0.0197
vt 0.608351 0.281988
vt 0.662514 0.282066
vt 0.664136 0.348537
vt 0.608878 0.347190
vt 0.335710 0.280184
vt 0.389770 0.281043
vt 0.388483 0.345904
vt 0.334533 0.344923
vt 0.444117 0.281994
vt 0.443227 0.347656
vt 0.499175 0.283241
vt 0.499048 0.351324
vt 0.554145 0.282309
vt 0.554885 0.347867
vt 0.553832 0.021668
vt 0.609215 0.016814
vt 0.608441 0.086425
vt 0.554046 0.086609
vt 0.608458 0.151810
vt 0.554038 0.151795
vt 0.608250 0.217018
vt 0.553943 0.217059
vt 0.499860 0.021719
vt 0.499824 0.086611
vt 0.499677 0.151725
vt 0.499429 0.217113
vt 0.445881 0.021602
vt 0.445680 0.086458
vt 0.445387 0.151466
vt 0.444920 0.216642
vt 0.391896 0.021377
vt 0.391601 0.086199
vt 0.391217 0.151091
vt 0.390646 0.216050
vt 0.337903 0.021102
vt 0.337584 0.085893
vt 0.337177 0.150670
vt 0.336584 0.215434
vt 0.664136 0.002857
vt 0.661621 0.086433
vt 0.662668 0.152386
vt 0.662341 0.217144
s 1
usemtl Post_it_note
f 50/25/7 30/26/8 12/27/9 18/28/10
f 23/29/11 34/30/12 22/31/13 11/32/11
f 34/30/12 38/33/14 21/34/15 22/31/13
f 38/33/14 42/35/16 20/36/17 21/34/15
f 42/35/16 46/37/18 19/38/19 20/36/17
f 46/37/18 50/25/7 18/28/10 19/38/19
f 16/39/20 17/40/21 47/41/22 43/42/23
f 43/42/23 47/41/22 48/43/24 44/44/25
f 44/44/25 48/43/24 49/45/26 45/46/27
f 45/46/27 49/45/26 50/25/7 46/37/18
f 15/47/11 16/39/20 43/42/23 39/48/11
f 39/48/11 43/42/23 44/44/25 40/49/11
f 40/49/11 44/44/25 45/46/27 41/50/28
f 41/50/28 45/46/27 46/37/18 42/35/16
f 14/51/11 15/47/11 39/48/11 35/52/11
f 35/52/11 39/48/11 40/49/11 36/53/11
f 36/53/11 40/49/11 41/50/28 37/54/29
f 37/54/29 41/50/28 42/35/16 38/33/14
f 13/55/11 14/51/11 35/52/11 31/56/11
f 31/56/11 35/52/11 36/53/11 32/57/11
f 32/57/11 36/53/11 37/54/29 33/58/30
f 33/58/30 37/54/29 38/33/14 34/30/12
f 9/59/11 13/55/11 31/56/11 26/60/11
f 26/60/11 31/56/11 32/57/11 25/61/11
f 25/61/11 32/57/11 33/58/30 24/62/11
f 24/62/11 33/58/30 34/30/12 23/29/11
f 17/40/21 10/63/31 27/64/32 47/41/22
f 47/41/22 27/64/32 28/65/33 48/43/24
f 48/43/24 28/65/33 29/66/34 49/45/26
f 49/45/26 29/66/34 30/26/8 50/25/7
