# Blender 4.0.2
# www.blender.org
mtllib tarot.mtl
o Ace_Of_Spades_Mesh
v -2.827520 4.421416 0.030194
v -2.997306 4.173943 0.030194
v -2.668499 4.513415 0.030194
v -2.997306 4.173943 -0.030193
v -2.827520 4.421416 -0.030193
v -2.668499 4.513415 -0.030193
v 2.701624 4.421416 0.030194
v 2.548943 4.513415 0.030194
v 2.862651 4.173943 0.030194
v 2.862651 4.173943 -0.030193
v 2.548943 4.513415 -0.030193
v 2.701624 4.421416 -0.030193
v -2.803158 -4.382702 0.030193
v -2.631904 -4.487539 0.030193
v -2.997306 -3.991214 0.030193
v -2.803158 -4.382702 -0.030194
v -2.997306 -3.991214 -0.030194
v -2.631904 -4.487539 -0.030194
v 2.668813 -4.382702 0.030193
v 2.862651 -3.991214 0.030193
v 2.489821 -4.487539 0.030193
v 2.668813 -4.382702 -0.030194
v 2.489821 -4.487539 -0.030194
v 2.862651 -3.991214 -0.030194
v -2.923378 4.310362 0.030194
v -2.923378 4.310362 -0.030193
v 2.808075 4.310362 0.030194
v 2.808075 4.310362 -0.030193
v -2.903637 -4.271648 0.030193
v -2.903637 -4.271648 -0.030194
v 2.776411 -4.271648 0.030193
v 2.776411 -4.271648 -0.030194
v -2.975853 -4.131431 0.030193
v 2.841198 -4.131431 -0.030194
v -2.975853 -4.131431 -0.030194
v 2.841198 -4.131431 0.030193
vn -0.0768 0.9970 -0.0001
vn -0.0768 0.9970 -0.0000
vn 0.0851 0.9964 -0.0000
vn -0.0883 -0.9961 -0.0000
vn 0.0793 -0.9969 0.0001
vn 0.0793 -0.9969 -0.0000
vn 0.9949 0.1008 0.0001
vn 0.9949 0.1008 -0.0000
vn 1.0000 0.0051 -0.0001
vn 1.0000 0.0051 -0.0000
vn -0.9949 0.1008 0.0001
vn -0.9949 0.1008 -0.0000
vn -0.9983 0.0589 -0.0001
vn -0.9983 0.0589 -0.0000
vn -0.9110 0.4125 0.0001
vn -0.7570 0.6534 -0.0000
vn -0.8229 0.5682 -0.0000
vn -0.5008 0.8656 -0.0000
vn 0.5161 0.8565 -0.0000
vn 0.8406 0.5417 -0.0000
vn 0.9260 0.3775 -0.0001
vn -0.5221 -0.8529 -0.0000
vn -0.9512 -0.3086 -0.0000
vn -0.9915 -0.1302 0.0001
vn 0.9141 -0.4056 -0.0000
vn 0.7182 -0.6958 -0.0000
vn 0.8247 -0.5656 -0.0000
vn 0.5054 -0.8629 -0.0000
vn -0.0000 -0.0000 1.0000
vn 0.7219 0.6920 -0.0000
vn 0.9939 -0.1105 0.0001
vn 0.9576 -0.2882 -0.0000
vn -0.7415 -0.6709 -0.0000
vn -0.8222 -0.5692 -0.0000
vn -0.9111 -0.4121 -0.0001
vn -0.0000 -0.0000 -1.0000
vt 0.895176 0.874502
vt 0.848009 0.874535
vt 0.848005 0.506074
vt 0.895172 0.506041
vt 0.148506 0.481569
vt 0.105555 0.481496
vt 0.105563 0.122249
vt 0.148513 0.122323
vt 0.848001 0.098464
vt 0.895168 0.098432
vt 0.895172 0.479214
vt 0.848005 0.479247
vt 0.105555 0.507651
vt 0.148505 0.507725
vt 0.148498 0.878984
vt 0.105548 0.878910
vt 0.148498 0.884717
vt 0.148498 0.890450
vt 0.105547 0.890376
vt 0.105547 0.884643
vt 0.848008 0.889603
vt 0.895176 0.889570
vt 0.848005 0.491006
vt 0.895172 0.490974
vt 0.848005 0.485127
vt 0.895172 0.485094
vt 0.148505 0.496259
vt 0.105555 0.496186
vt 0.148505 0.504859
vt 0.105555 0.504785
vt 0.848001 0.092585
vt 0.848001 0.086705
vt 0.895168 0.086673
vt 0.895168 0.092552
vt 0.148513 0.107633
vt 0.105563 0.107559
vt 0.127137 0.917881
vt 0.875129 0.917881
vt 0.854475 0.926896
vt 0.148649 0.926896
vt 0.114169 0.906998
vt 0.889530 0.906998
vt 0.104168 0.093487
vt 0.896913 0.093487
vt 0.896913 0.893630
vt 0.104168 0.893630
vt 0.870691 0.055123
vt 0.130432 0.055123
vt 0.153600 0.044850
vt 0.846476 0.044850
vt 0.894011 0.079746
vt 0.107070 0.079746
vt 0.885246 0.066006
vt 0.116839 0.066006
vt 0.848001 0.095525
vt 0.895168 0.095492
vt 0.148505 0.501992
vt 0.105555 0.501919
vt 0.890435 0.082961
vt 0.108916 0.082961
vt 0.106034 0.096561
vt 0.893317 0.096561
vt 0.867275 0.058590
vt 0.843228 0.048422
vt 0.155126 0.048422
vt 0.132118 0.058590
vt 0.885985 0.901732
vt 0.115966 0.901732
vt 0.128845 0.912503
vt 0.871683 0.912503
vt 0.150209 0.921426
vt 0.851171 0.921426
vt 0.106034 0.888500
vt 0.893317 0.888500
vt 0.118618 0.069361
vt 0.881731 0.069361
s 1
usemtl playing_card
f 6/1/1 3/2/2 8/3/3 11/4/3
f 14/5/4 18/6/4 23/7/5 21/8/6
f 20/9/7 24/10/8 10/11/9 9/12/10
f 17/13/11 15/14/12 2/15/13 4/16/14
f 25/17/15 1/18/16 5/19/16 26/20/17
f 1/21/18 3/2/2 6/1/1 5/22/18
f 8/3/3 7/23/19 12/24/19 11/4/3
f 27/25/20 9/12/10 10/11/9 28/26/21
f 14/5/4 13/27/22 16/28/22 18/6/4
f 33/29/23 15/14/12 17/13/11 35/30/24
f 31/31/25 19/32/26 22/33/26 32/34/27
f 19/35/28 21/8/6 23/7/5 22/36/28
f 1/37/29 7/38/29 8/39/29 3/40/29
f 25/41/29 27/42/29 7/38/29 1/37/29
f 15/43/29 20/44/29 9/45/29 2/46/29
f 19/47/29 13/48/29 14/49/29 21/50/29
f 36/51/29 20/44/29 15/43/29 33/52/29
f 2/46/29 9/45/29 27/42/29 25/41/29
f 7/23/30 27/25/20 28/26/21 12/24/30
f 2/15/13 25/17/15 26/20/17 4/16/14
f 19/47/29 31/53/29 29/54/29 13/48/29
f 36/55/31 31/31/25 32/34/27 34/56/32
f 13/27/33 29/57/34 30/58/35 16/28/33
f 20/9/7 36/55/31 34/56/32 24/10/8
f 31/53/29 36/51/29 33/52/29 29/54/29
f 29/57/34 33/29/23 35/30/24 30/58/35
usemtl back
f 34/59/36 35/60/36 17/61/36 24/62/36
f 22/63/36 23/64/36 18/65/36 16/66/36
f 28/67/36 26/68/36 5/69/36 12/70/36
f 12/70/36 5/69/36 6/71/36 11/72/36
f 24/62/36 17/61/36 4/73/36 10/74/36
f 10/74/36 4/73/36 26/68/36 28/67/36
f 22/63/36 16/66/36 30/75/36 32/76/36
f 32/76/36 30/75/36 35/60/36 34/59/36
