# Blender 4.0.2
# www.blender.org
mtllib signarrow.mtl
o pCube1
v 0.004321 0.005239 -0.054460
v -0.009772 0.005239 0.054435
v -0.112735 1.722557 0.050619
v -0.109192 1.724036 0.054435
v -0.110714 1.727561 0.050619
v -0.001785 1.834964 0.050785
v -0.006998 1.834821 0.050735
v -0.004496 1.832339 0.054435
v -0.112735 1.722544 -0.050645
v -0.110656 1.727522 -0.050645
v -0.109189 1.723986 -0.054460
v -0.002196 1.834888 -0.050812
v 0.003019 1.834839 -0.050761
v 0.000561 1.832309 -0.054460
v -0.112735 0.005239 0.050725
v -0.109024 0.005239 0.054435
v 0.109021 0.005239 0.054435
v 0.112732 0.005239 0.050724
v 0.109184 1.723949 0.054435
v 0.112732 1.722534 0.050622
v 0.110611 1.727492 0.050622
v 0.110666 1.727530 -0.050645
v 0.112732 1.722547 -0.050645
v 0.109187 1.723997 -0.054460
v -0.112735 0.005239 -0.050749
v -0.109024 0.005239 -0.054460
v 0.109021 0.005239 -0.054460
v 0.112732 0.005239 -0.050749
vn 0.0001 -0.0631 0.9980
vn -0.0000 -0.0634 -0.9980
vn 0.0330 -0.0960 -0.9948
vn 0.9940 -0.1038 -0.0343
vn 0.9940 -0.1037 0.0344
vn 0.0303 -0.0883 0.9956
vn -0.9945 -0.0989 -0.0343
vn -0.0315 -0.0876 -0.9957
vn -0.0344 -0.0955 0.9948
vn -0.9945 -0.0989 0.0344
vn -0.9992 0.0011 0.0403
vn -0.7202 0.6934 0.0223
vn -0.7186 0.6932 -0.0558
vn -0.9992 0.0011 -0.0401
vn -0.0203 0.0012 0.9998
vn -0.0000 0.0042 1.0000
vn -0.6955 0.7183 0.0161
vn 0.6800 0.7314 0.0515
vn 0.0183 0.0012 0.9998
vn 0.7062 0.7058 0.0553
vn 0.6828 0.7304 -0.0166
vn -0.6927 0.7194 -0.0520
vn -0.0189 0.0011 -0.9998
vn 0.0001 0.0042 -1.0000
vn 0.7077 0.7061 -0.0227
vn 0.0197 0.0012 -0.9998
vn 0.9992 0.0012 0.0400
vn 0.9992 0.0012 -0.0401
vt 0.365741 0.011051
vt 0.358167 0.063088
vt 0.307774 0.062520
vt 0.306045 0.060701
vt 0.306856 0.011984
vt 0.308677 0.010225
vt 0.414279 0.062358
vt 0.412471 0.064107
vt 0.413343 0.011892
vt 0.415092 0.013702
vt 0.142321 0.863920
vt 0.142986 0.865380
vt 0.096135 0.876127
vt 0.095415 0.873674
vt 0.144224 0.864654
vt 0.146239 0.061555
vt 0.148921 0.061502
vt 0.189699 0.922852
vt 0.185361 0.925270
vt 0.291694 0.957267
vt 0.289408 0.959081
vt 0.243330 0.879227
vt 0.246265 0.878486
vt 0.292712 0.959948
vt 0.340166 0.930568
vt 0.341873 0.932873
vt 0.092919 0.875121
vt 0.094757 0.061703
vt 0.097275 0.061693
vt 0.135034 0.950489
vt 0.132505 0.951810
vt 0.343014 0.929220
vt 0.294959 0.868469
vt 0.296718 0.867164
vt 0.253830 0.062025
vt 0.256263 0.062080
vt 0.246386 0.874688
vt 0.243697 0.874944
vt 0.294214 0.866042
vt 0.305137 0.062533
vt 0.196828 0.061430
vt 0.395927 0.879176
s 1
usemtl lambert2
f 2/1/1 1/2/2 27/3/3 28/4/4 18/5/5 17/6/6
f 25/7/7 26/8/8 1/2/2 2/1/1 16/9/9 15/10/10
f 3/11/11 5/12/12 10/13/13 9/14/14
f 4/15/15 3/11/11 15/16/10 16/17/9
f 5/12/12 4/15/15 8/18/16 7/19/17
f 6/20/18 8/21/16 19/22/19 21/23/20
f 7/24/17 6/20/18 13/25/21 12/26/22
f 9/14/14 11/27/23 26/28/8 25/29/7
f 11/27/23 10/13/13 12/30/22 14/31/24
f 14/32/24 13/25/21 22/33/25 24/34/26
f 17/35/6 18/36/5 20/37/27 19/38/19
f 21/23/20 20/37/27 23/39/28 22/33/25
f 24/34/26 23/39/28 28/40/4 27/3/3
f 4/15/15 16/17/9 2/41/1 8/18/16
f 5/12/12 7/19/17 12/30/22 10/13/13
f 11/42/23 14/32/24 1/2/2 26/8/8
f 20/37/27 18/36/5 28/40/4 23/39/28
f 9/14/14 25/29/7 15/16/10 3/11/11
f 6/20/18 21/23/20 22/33/25 13/25/21
f 1/2/2 14/32/24 24/34/26 27/3/3
f 8/18/16 2/41/1 17/35/6 19/38/19
f 3/11/11 4/15/15 5/12/12
f 6/20/18 7/24/17 8/21/16
f 9/14/14 10/13/13 11/27/23
f 12/26/22 13/25/21 14/32/24
f 19/38/19 20/37/27 21/23/20
f 22/33/25 23/39/28 24/34/26
o pCube2
v 0.626132 1.108037 0.132944
v 0.623401 1.108037 0.135675
v 0.623402 1.105306 0.132944
v 0.626147 1.311195 0.132945
v 0.623416 1.311195 0.135675
v -0.501814 1.108037 0.135675
v -0.502735 1.105306 0.132944
v -0.770489 1.313125 0.132994
v -0.770435 1.309335 0.132994
v -0.768337 1.311260 0.135675
v -0.502710 1.105307 0.057717
v -0.501787 1.108037 0.054986
v -0.770391 1.309327 0.057664
v -0.770430 1.313114 0.057664
v -0.768274 1.311242 0.054986
v 0.623426 1.105307 0.057716
v 0.623427 1.108037 0.054986
v 0.626157 1.108037 0.057716
v 0.623442 1.311195 0.054986
v 0.626172 1.311195 0.057717
v 0.626163 1.525047 0.132945
v 0.623433 1.527777 0.132944
v 0.623432 1.525047 0.135675
v -0.503980 1.525156 0.135675
v -0.502633 1.527777 0.132853
v -0.506389 1.526453 0.132821
v -0.502280 1.526463 0.057755
v -0.498526 1.527777 0.057789
v -0.499573 1.525197 0.054986
v 0.623458 1.525047 0.054986
v 0.623457 1.527777 0.057716
v 0.626188 1.525047 0.057717
vn 0.9993 -0.0130 0.0350
vn 0.0024 -0.9994 0.0349
vn 0.0024 -0.9994 -0.0349
vn 0.9993 -0.0130 -0.0344
vn 0.0022 -0.0119 0.9999
vn 0.9994 -0.0000 0.0353
vn 0.0022 -0.0000 1.0000
vn -0.0016 -0.0106 0.9999
vn -0.1449 -0.9890 0.0311
vn 0.9993 0.0122 0.0351
vn 0.0021 0.0115 0.9999
vn -0.0055 -0.0000 1.0000
vn -0.6127 -0.7897 0.0323
vn -0.6321 0.7747 0.0146
vn -0.0012 0.0072 1.0000
vn -0.6227 0.7822 0.0217
vn -0.6312 0.7740 -0.0490
vn -0.6127 -0.7897 -0.0326
vn -0.1448 -0.9890 -0.0312
vn -0.0016 -0.0107 -0.9999
vn 0.0022 -0.0119 -0.9999
vn -0.0055 0.0001 -1.0000
vn -0.6212 0.7814 -0.0598
vn -0.0011 0.0074 -1.0000
vn 0.0022 -0.0000 -1.0000
vn 0.9994 -0.0001 -0.0347
vn 0.0021 0.0114 -0.9999
vn 0.9993 0.0123 -0.0344
vn 0.0024 0.9994 0.0343
vn 0.0024 0.9994 -0.0340
vn -0.0012 0.9991 0.0427
vn -0.0010 0.9993 -0.0383
vt 0.629096 0.242514
vt 0.628769 0.243988
vt 0.595850 0.242180
vt 0.595914 0.240556
vt 0.630155 0.244077
vt 0.630143 0.242337
vt 0.711003 0.242332
vt 0.710969 0.244012
vt 0.631544 0.747021
vt 0.629997 0.747398
vt 0.796810 0.243885
vt 0.796805 0.245619
vt 0.561831 0.892156
vt 0.560120 0.891806
vt 0.710194 0.866448
vt 0.708598 0.865940
vt 0.787856 0.740533
vt 0.788613 0.741574
vt 0.709377 0.867693
vt 0.739807 0.884792
vt 0.739299 0.886238
vt 0.598545 0.741895
vt 0.596910 0.741411
vt 0.594376 0.241566
vt 0.527222 0.877543
vt 0.525772 0.876526
vt 0.741331 0.885530
vt 0.818694 0.747541
vt 0.820720 0.747072
vt 0.630270 0.209059
vt 0.630278 0.207354
vt 0.711378 0.207501
vt 0.711363 0.209206
vt 0.797325 0.208871
vt 0.797298 0.210580
vt 0.798542 0.245939
vt 0.798420 0.244248
vt 0.831882 0.245154
vt 0.831654 0.246763
vt 0.789099 0.740028
vt 0.819276 0.745971
vt 0.833284 0.246628
vt 0.512887 0.241412
vt 0.436498 0.759331
vt 0.421522 0.243816
s 1
usemtl lambert2
f 29/43/29 31/44/30 44/45/31 46/46/32
f 30/47/33 29/48/29 32/49/34 33/50/35
f 31/44/30 30/47/33 34/51/36 35/52/37
f 33/50/35 32/49/34 49/53/38 51/54/39
f 35/52/37 34/51/36 38/55/40 37/56/41
f 36/57/42 38/58/40 52/59/43 54/60/44
f 37/61/41 36/57/42 42/62/45 41/63/46
f 39/64/47 40/65/48 45/66/49 44/45/31
f 40/65/48 39/64/47 41/67/46 43/68/50
f 43/69/50 42/62/45 55/70/51 57/71/52
f 46/72/32 45/73/49 47/74/53 48/75/54
f 48/75/54 47/74/53 58/76/55 60/77/56
f 50/78/57 49/79/38 60/80/56 59/81/58
f 51/54/39 50/78/57 53/82/59 52/59/43
f 54/60/44 53/82/59 56/83/60 55/70/51
f 57/71/52 56/83/60 59/81/58 58/84/55
f 30/47/33 33/50/35 38/58/40 34/51/36
f 35/52/37 37/56/41 41/67/46 39/64/47
f 40/65/48 43/68/50 47/85/53 45/66/49
f 46/72/32 48/75/54 32/49/34 29/48/29
f 50/78/57 59/81/58 56/83/60 53/82/59
f 44/45/31 31/44/30 35/52/37 39/64/47
f 36/57/42 54/60/44 55/70/51 42/62/45
f 47/85/53 43/68/50 57/86/52 58/87/55
f 32/49/34 48/75/54 60/77/56 49/53/38
f 38/58/40 33/50/35 51/54/39 52/59/43
f 29/43/29 30/47/33 31/44/30
f 36/57/42 37/61/41 38/58/40
f 41/63/46 42/62/45 43/69/50
f 44/45/31 45/66/49 46/46/32
f 49/79/38 50/78/57 51/54/39
f 52/59/43 53/82/59 54/60/44
f 55/70/51 56/83/60 57/71/52
f 58/84/55 59/81/58 60/80/56
